<?xml version="1.0" encoding="UTF-8"?>
<svg id="Layer_2" data-name="Layer 2" xmlns="http://www.w3.org/2000/svg" viewBox="0 0 186.59 186.59">
  <defs>
    <style>
      .cls-1 {
        fill: none;
        stroke: #000;
        stroke-miterlimit: 10;
        stroke-width: 4px;
      }
    </style>
  </defs>
  <g id="Layer_1-2" data-name="Layer 1">
    <path class="cls-1" d="M33.68,163.72c6.85-13.2,16.78-31.26,20.18-38.7.97-2.12,0,0,1.69-2.09,2.09-2.59,4.94,9.01,6.97,11.65s4.43,5.74,7.76,5.63c3.26-.11,5.45-3.27,7.06-6.1,7.82-13.79,14.67-28.13,20.48-42.88,5.27,14.06,10.26,24.65,15.53,38.71,1.41,3.75,5.55,7.09,9.51,7.73,3.94.64,7.24-4.88,9.6-8.09,3.59-4.87,3.48-9.4,6.23-8.6,12.11,15.54,17.4,23.44,24.17,32.42"/>
    <circle class="cls-1" cx="93.29" cy="93.29" r="91.29"/>
    <g>
      <g>
        <line class="cls-1" x1="97.71" y1="124.94" x2="98.33" y2="169.84"/>
        <path class="cls-1" d="M97.7,125.14c0-.16.01-.33.02-.46,0-.13,0-.24.01-.3s0-.06,0,.02c0,.07,0,.19-.01.31s-.01.26-.02.39"/>
        <path class="cls-1" d="M98.33,168.59c0,.44,0,.89,0,1.25,0,.34,0,.65,0,.81s0,.17,0-.05c0-.19,0-.51,0-.85s0-.7,0-1.06"/>
      </g>
      <g>
        <line class="cls-1" x1="111.56" y1="147.23" x2="111.85" y2="161.07"/>
        <path class="cls-1" d="M111.34,147.3s.09-.05.12-.08c.03-.02.06-.04.08-.05s.02-.01,0,0c-.02.01-.05.03-.08.05s-.07.04-.1.06"/>
        <path class="cls-1" d="M111.86,160.69c0,.13,0,.27,0,.39,0,.11,0,.2,0,.25s0,.05,0-.01c0-.06,0-.16,0-.26s0-.22,0-.33"/>
      </g>
      <g>
        <line class="cls-1" x1="85.96" y1="147.34" x2="85.99" y2="161.19"/>
        <path class="cls-1" d="M85.74,147.41s.09-.05.12-.07c.03-.02.06-.04.08-.05s.02,0,0,0c-.02.01-.05.03-.08.05s-.07.04-.1.06"/>
        <path class="cls-1" d="M86,160.8c0,.13,0,.27-.01.39,0,.11,0,.2,0,.25s0,.05,0-.01c0-.06,0-.16,0-.26s0-.22.01-.33"/>
      </g>
      <g>
        <line class="cls-1" x1="126.47" y1="145.9" x2="126.76" y2="169.2"/>
        <path class="cls-1" d="M126.25,146.02s.09-.09.12-.13c.03-.03.06-.07.08-.08s.02-.02,0,0c-.02.02-.05.05-.08.09s-.07.07-.1.11"/>
        <path class="cls-1" d="M126.77,168.55c0,.23,0,.46,0,.65,0,.18,0,.34,0,.42s0,.09,0-.03c0-.1,0-.26,0-.44s0-.36,0-.55"/>
      </g>
      <g>
        <line class="cls-1" x1="71.58" y1="148.25" x2="71.86" y2="171.55"/>
        <path class="cls-1" d="M71.36,148.37s.09-.09.12-.13c.03-.03.06-.07.08-.08s.02-.02,0,0c-.02.02-.05.05-.08.09s-.07.07-.1.11"/>
        <path class="cls-1" d="M71.87,170.9c0,.23,0,.46,0,.65,0,.18,0,.34,0,.42s0,.09,0-.03c0-.1,0-.26,0-.44s0-.36,0-.55"/>
      </g>
      <g>
        <line class="cls-1" x1="55.31" y1="148.43" x2="55.34" y2="162.28"/>
        <path class="cls-1" d="M55.09,148.49s.09-.05.12-.07c.03-.02.06-.04.08-.05s.02,0,0,0c-.02.01-.05.03-.08.05s-.07.04-.1.06"/>
        <path class="cls-1" d="M55.35,161.89c0,.13,0,.27-.01.39,0,.11,0,.2,0,.25s0,.05,0-.01c0-.06,0-.16,0-.26s0-.22.01-.33"/>
      </g>
      <g>
        <line class="cls-1" x1="142.11" y1="145.86" x2="142.14" y2="159.71"/>
        <path class="cls-1" d="M141.89,145.93s.09-.05.12-.07c.03-.02.06-.04.08-.05s.02,0,0,0c-.02.01-.05.03-.08.05s-.07.04-.1.06"/>
        <path class="cls-1" d="M142.16,159.32c0,.13,0,.27-.01.39,0,.11,0,.2,0,.25s0,.05,0-.01c0-.06,0-.16,0-.26s0-.22.01-.33"/>
      </g>
    </g>
    <g>
      <line class="cls-1" x1="96.34" y1="57.94" x2="95.82" y2="13.04"/>
      <path class="cls-1" d="M96.35,57.75c0,.16-.01.33-.02.46,0,.13,0,.24-.01.3s0,.06,0-.02c0-.07,0-.19.01-.31s.01-.26.02-.39"/>
      <path class="cls-1" d="M95.82,14.29c0-.44,0-.89,0-1.25,0-.34,0-.65,0-.81s0-.17,0,.05c0,.19,0,.51,0,.85s0,.7,0,1.06"/>
    </g>
    <g>
      <line class="cls-1" x1="83.02" y1="34.48" x2="82.77" y2="20.63"/>
      <path class="cls-1" d="M83.24,34.41s-.09.05-.12.08c-.03.02-.06.04-.08.05s-.02.01,0,0c.02-.01.05-.03.08-.05s.07-.04.1-.06"/>
      <path class="cls-1" d="M82.75,21.02c0-.13,0-.27,0-.39,0-.11,0-.2,0-.25s0-.05,0,.01c0,.06,0,.16,0,.26s0,.22,0,.33"/>
    </g>
    <g>
      <line class="cls-1" x1="109.33" y1="34.48" x2="109.33" y2="20.63"/>
      <path class="cls-1" d="M109.55,34.41s-.09.05-.12.07c-.03.02-.06.04-.08.05s-.02,0,0,0c.02-.01.05-.03.08-.05s.07-.04.1-.06"/>
      <path class="cls-1" d="M109.31,21.02c0-.13,0-.27.01-.39,0-.11,0-.2,0-.25s0-.05,0,.01c0,.06,0,.16,0,.26s0,.22-.01.33"/>
    </g>
    <g>
      <line class="cls-1" x1="123.75" y1="34.86" x2="123.52" y2="14.35"/>
      <path class="cls-1" d="M123.97,34.75s-.09.08-.12.11c-.03.03-.06.06-.08.07s-.02.02,0,0c.02-.02.05-.05.08-.08s.07-.06.1-.09"/>
      <path class="cls-1" d="M123.51,14.92c0-.2,0-.41,0-.57,0-.16,0-.3,0-.37s0-.08,0,.02c0,.08,0,.23,0,.39s0,.32,0,.48"/>
    </g>
    <g>
      <line class="cls-1" x1="52.1" y1="35.15" x2="52.1" y2="21.3"/>
      <path class="cls-1" d="M52.32,35.09s-.09.05-.12.07c-.03.02-.06.04-.08.05s-.02,0,0,0c.02-.01.05-.03.08-.05s.07-.04.1-.06"/>
      <path class="cls-1" d="M52.09,21.69c0-.13,0-.27.01-.39,0-.11,0-.2,0-.25s0-.05,0,.01c0,.06,0,.16,0,.26s0,.22-.01.33"/>
    </g>
    <path class="cls-1" d="M97.3,91.21c-3.88-8.24-6.57-16.96-10.13-25.33-3.69-6.87-4.69-15.87-12.69-19.87-9-3-13,7-15,14-1,1-2,3-4,2-10-10-17.08-22.4-26.04-32.52"/>
    <path class="cls-1" d="M154.79,26.71c-3.59,8.57-8.31,17.31-12.31,26.31-1,2-2,5-5,5-2-1-3-2-4-4-2-5-3-11-9-13-2,0-5,1-6,3-9,15-16,31-21.18,47.2-.28-.67,3.29-9.65,0,0"/>
    <g>
      <line class="cls-1" x1="69.54" y1="35.88" x2="69.31" y2="15.37"/>
      <path class="cls-1" d="M69.76,35.77s-.09.08-.12.11c-.03.03-.06.06-.08.07s-.02.02,0,0c.02-.02.05-.05.08-.08s.07-.06.1-.09"/>
      <path class="cls-1" d="M69.3,15.94c0-.2,0-.41,0-.57,0-.16,0-.3,0-.37s0-.08,0,.02c0,.08,0,.23,0,.39s0,.32,0,.48"/>
    </g>
    <g>
      <line class="cls-1" x1="138.4" y1="34.48" x2="138.4" y2="20.63"/>
      <path class="cls-1" d="M138.62,34.41s-.09.05-.12.07c-.03.02-.06.04-.08.05s-.02,0,0,0c.02-.01.05-.03.08-.05s.07-.04.1-.06"/>
      <path class="cls-1" d="M138.38,21.02c0-.13,0-.27.01-.39,0-.11,0-.2,0-.25s0-.05,0,.01c0,.06,0,.16,0,.26s0,.22-.01.33"/>
    </g>
    <g>
      <path class="cls-1" d="M148.45,75.93c.78-.3,1.7,36.37,7.33,36.37,7.09,0,5.39-33.02,7.07-33.57,4.57-1.04,3.88,1.91,5.43,7.1.92,3.09,1.63,6.82,1.94,7.99.78,2.95,1.38,5.21,2.48,2.79,1.19-2.61,1.66-3.72,4.54-3.8,2.66-.07,5.45.25,7.35-1.61"/>
      <path class="cls-1" d="M107.98,91.22c1.47-.43,4.66.34,6.34.42s2.33-5.78,4-2.32c.79,1.64.15,7.78,1.3,9.19,1.71,2.09,4.05,1.07,5.02-.49.89-1.43,1.12-3.04,1.67-4.54.34-.92,1.12-1.8,2.09-1.85,1.86-.11,2.29,2.53,2.16,4.39-.29,4.04.04,8.12.95,12.06.29,1.26.68,2.56,1.62,3.45s2.59,1.13,3.47.2c.43-.46.61-1.1.76-1.71,3.74-15.09-2.06-41.76,8.85-37.79,2.95,1.07,2.72,9.36,3.06,10.31"/>
      <ellipse class="cls-1" cx="108.31" cy="91.08" rx=".78" ry=".04" transform="translate(-3.09 3.81) rotate(-1.99)"/>
    </g>
    <g>
      <path class="cls-1" d="M63.02,80.24c6.37,0,6.84,12.21,6.6,18.58-.09,2.21.1,4.43.72,6.56,1.34,4.62,3.1,6.99,5.01,4.02,1.19-2.75,2.21-5.53,2.3-6.76.3-4.09.65-8.6,1.66-10.2,1.9-3.02,6.56-2.25,9.28-1.4"/>
      <path class="cls-1" d="M2,100.65c1.42-2.42,2.77-3.6,5.26-4.91,1.15-.61,1.73-.45,2.85.22,1.13.66,1.38,3.25,1.45,4.55.35,6.94.72,11.85,1.59,16.98.23,1.39,1.02,4.95,2.38,4.63,1.83-.44,3.13-4.82,3.18-6.43.33-10.21-.46-18.93-1.57-29.09-.6-5.44-1.39-11.04.53-16.27.42-1.14,1.33-2.08,2.5-2.38,2.88-.74,4.36,2.43,4.92,5,1.56,7.14,2.03,14.52,1.39,21.81-.14,1.66-.34,3.37.18,4.95.35,1.07,1.14,2.06,2.13,2.53.77.37,1.66-.13,1.87-.96.49-1.98.87-4.7.81-6.73-.03-.94,1.24-2.18,2.14-1.88,1.23.4,1.81,2.98,1.94,4.4.19,2.13.96,4.14,1.4,6.23.38,1.82.21,3.46,1.97,3.99.81.24,1.66-.24,1.97-1.02l4.5-11.29c.39-.99.85-2.06,2.13-2.25,1.1-.16,2.14.5,2.69,1.46,1.04,1.8.57,3.86.55,5.84-.02,2.1.5,4.2,1.5,6.04.35.65.89,1.21,1.6,1.41,1.2.33,1.93-.53,2.4-1.39,1.7-3.09,1.46-6.83,1.62-10.35.24-5.34,1.79-15.78,6.23-15.34"/>
      <ellipse class="cls-1" cx="87.82" cy="90.93" rx=".04" ry=".78" transform="translate(-15.56 163.68) rotate(-81.13)"/>
    </g>
  </g>
</svg>